<svg width="130" height="64" viewBox="0 0 130 64" fill="none" xmlns="http://www.w3.org/2000/svg">
<path d="M59.5656 63.2937H55.5175V50.7921H59.6847C60.9093 50.7921 61.9639 51.0472 62.8313 51.5405C63.7158 52.0337 64.3792 52.7481 64.8554 53.6836C65.3317 54.6191 65.5528 55.7247 65.5528 57.0174C65.5528 58.3271 65.3147 59.4327 64.8384 60.3682C64.3622 61.3037 63.6818 62.018 62.7803 62.5283C61.9299 63.0386 60.8413 63.2937 59.5656 63.2937ZM57.4055 61.6438H59.4636C60.4161 61.6438 61.1985 61.4567 61.8448 61.0996C62.4742 60.7424 62.9504 60.2151 63.2566 59.5347C63.5627 58.8544 63.7328 58.0039 63.7328 57.0174C63.7328 56.0309 63.5797 55.1974 63.2736 54.5171C62.9674 53.8367 62.4912 53.3094 61.8788 52.9692C61.2665 52.612 60.5011 52.442 59.5826 52.442H57.4055V61.6438Z" fill="#252525"/>
<path d="M71.523 50.7921V63.2937H69.635V50.7921H71.523Z" fill="#252525"/>
<path d="M84.4498 54.7381C84.3307 54.3639 84.1777 54.0408 83.9736 53.7346C83.7695 53.4455 83.5483 53.1903 83.2762 52.9862C83.0041 52.7821 82.6979 52.612 82.3407 52.51C82.0005 52.4079 81.6093 52.3399 81.2011 52.3399C80.5037 52.3399 79.8574 52.527 79.2961 52.8842C78.7348 53.2414 78.2755 53.7686 77.9524 54.466C77.6292 55.1634 77.4591 56.0138 77.4591 57.0344C77.4591 58.0549 77.6292 58.9054 77.9524 59.6027C78.2755 60.3001 78.7348 60.8274 79.3131 61.2016C79.8914 61.5588 80.5377 61.7459 81.2691 61.7459C81.9495 61.7459 82.5448 61.6098 83.0551 61.3377C83.5654 61.0655 83.9566 60.6743 84.2287 60.164C84.5008 59.6538 84.6539 59.0584 84.6539 58.3781L85.1472 58.4631H81.5753V56.9153H86.4739V58.3441C86.4739 59.3986 86.2528 60.3001 85.8105 61.0825C85.3683 61.8479 84.756 62.4432 83.9736 62.8685C83.1911 63.2937 82.2897 63.4978 81.2861 63.4978C80.1635 63.4978 79.16 63.2427 78.3096 62.7154C77.4591 62.1881 76.7958 61.4567 76.3195 60.5042C75.8432 59.5517 75.6051 58.4121 75.6051 57.0854C75.6051 56.0819 75.7412 55.1974 76.0133 54.398C76.2855 53.5985 76.6767 52.9352 77.187 52.3739C77.6972 51.8126 78.2755 51.3874 78.9559 51.0982C79.6363 50.8091 80.3847 50.656 81.1841 50.656C81.8644 50.656 82.4938 50.758 83.0721 50.9621C83.6504 51.1663 84.1777 51.4384 84.6369 51.8126C85.0962 52.1868 85.4704 52.612 85.7765 53.1223C86.0827 53.6326 86.2868 54.1769 86.3888 54.7892H84.4498V54.7381Z" fill="#252525"/>
<path d="M92.4611 50.7921V63.2937H90.5731V50.7921H92.4611Z" fill="#252525"/>
<path d="M96.3221 52.4249V50.8091H106V52.4249H102.105V63.2937H100.217V52.4249H96.3221Z" fill="#252525"/>
<path d="M109.402 63.2937H107.395L111.885 50.7921H114.063L118.553 63.2937H116.58L113.042 53.0713H112.94L109.402 63.2937ZM109.742 58.3951H116.24V59.977H109.742V58.3951Z" fill="#252525"/>
<path d="M122.091 63.2937V50.7921H123.979V61.6608H129.643V63.2767H122.091V63.2937Z" fill="#252525"/>
<path d="M47.2171 0.00311656C41.9953 0.12218 37.8791 4.52752 37.8791 9.74929C37.8791 10.5147 38.4914 11.127 39.2568 11.127H41.0768C41.8422 11.127 42.4545 10.5147 42.4545 9.74929V9.69826C42.4545 6.99383 44.5466 4.6806 47.2511 4.57855C50.0916 4.4765 52.4388 6.7557 52.4388 9.56219C52.4388 10.4297 53.1362 11.127 54.0037 11.127H55.4664C56.3339 11.127 57.0313 10.4297 57.0313 9.56219C57.0143 4.20435 52.5919 -0.132956 47.2171 0.00311656Z" fill="#17CEAB"/>
<path d="M38.6615 26.4181V36.0793C38.6615 37.8822 37.1307 39.311 35.3618 39.311C33.5588 39.311 32.062 37.8652 32.062 36.0793V26.4181C32.062 22.6932 30.208 21.0773 27.6737 21.0773C23.8296 21.0773 22.69 24.8533 22.605 25.7038V25.6527V26.4181V36.0793C22.605 37.8822 21.1082 39.311 19.3052 39.311C17.5363 39.311 16.0055 37.8652 16.0055 36.0793V26.4181C16.0055 22.6932 14.1515 21.0773 11.6682 21.0773C7.77312 21.0773 6.68455 24.8533 6.5995 25.7038V36.0793C6.5995 37.8822 5.10271 39.311 3.29975 39.311C1.49679 39.311 0 37.8652 0 36.0793V18.9172C0 17.0802 1.49679 15.6004 3.29975 15.6004C5.10271 15.6004 6.5995 17.0802 6.5995 18.9172V20.7031C6.7866 19.0362 9.35496 15.4984 14.1515 15.4984C17.5023 15.4984 20.4448 17.1652 21.8056 21.0263C23.0642 18.2878 25.9218 15.4984 30.174 15.4984C34.7835 15.4984 38.6615 18.594 38.6615 26.4181Z" fill="#252525"/>
<path d="M50.7549 18.9172V36.0282C50.7549 37.8652 49.2581 39.345 47.4552 39.345C45.6522 39.345 44.1554 37.8652 44.1554 36.0282V18.9172C44.1554 17.0802 45.6522 15.6004 47.4552 15.6004C49.2581 15.5834 50.7549 17.0632 50.7549 18.9172Z" fill="#252525"/>
<path d="M78.8368 26.4181V36.0793C78.8368 37.8822 77.34 39.311 75.5371 39.311C73.7681 39.311 72.2373 37.8652 72.2373 36.0793V26.4181C72.2373 22.6932 70.3833 21.0773 67.9 21.0773C64.005 21.0773 62.9164 24.8533 62.8313 25.7038V36.0793C62.8313 37.8822 61.3345 39.311 59.5316 39.311C57.7286 39.311 56.2318 37.8652 56.2318 36.0793V18.9172C56.2318 17.0802 57.7286 15.6004 59.5316 15.6004C61.3345 15.6004 62.8313 17.0802 62.8313 18.9172V20.7031C63.0184 19.0362 65.5868 15.4984 70.3834 15.4984C74.9928 15.4984 78.8368 18.594 78.8368 26.4181Z" fill="#252525"/>
<path d="M107.208 10.2425V36.1303C107.208 37.9332 105.626 39.362 103.857 39.362C102.054 39.362 100.557 37.9162 100.557 36.1643C100.013 37.423 97.8359 39.396 94.264 39.396C89.2804 39.396 83.3612 35.569 83.3612 27.4046C83.3612 19.4104 89.3314 15.4473 94.264 15.4473C97.3427 15.4473 99.6899 17.1142 100.506 18.9001V10.2255C100.506 8.47359 102.037 6.9938 103.806 6.9938C105.626 6.9938 107.208 8.4906 107.208 10.2425ZM100.83 27.4046C100.83 22.6931 97.7509 21.0773 95.4887 21.0773C92.7332 21.0773 89.9607 23.2374 89.9607 27.4046C89.9607 31.6229 92.7162 33.783 95.4887 33.783C97.7509 33.783 100.83 32.1672 100.83 27.4046Z" fill="#252525"/>
<path d="M128.282 18.645C128.554 19.0022 129.099 19.6825 129.099 20.7541C129.099 22.37 128.01 23.2204 126.564 23.2204C125.612 23.2204 124.71 22.8632 123.843 21.9107C122.941 20.9752 122.04 20.601 121.036 20.601C119.59 20.601 118.689 21.3154 118.689 22.353C118.689 22.7952 118.774 23.6967 120.679 24.241L123.435 25.0064C126.87 26.0439 130 27.7448 130 31.844C130 36.9297 125.288 39.311 120.594 39.311C116.427 39.311 114.165 37.559 112.906 36.2493C112.634 35.9772 111.511 34.6845 111.511 33.1537C111.511 32.0821 112.192 30.6874 114.046 30.6874C115.355 30.6874 116.121 31.5038 116.716 32.1672C118.077 33.698 119.335 34.0041 120.611 34.0041C122.601 34.0041 123.469 33.1027 123.469 32.2012C123.469 31.759 123.281 30.7554 121.155 30.1261L118.808 29.4117C114.199 28.102 112.243 25.6357 112.243 22.404C112.243 17.6925 116.58 15.4473 120.832 15.4473C123.809 15.4473 126.802 16.5699 128.282 18.645Z" fill="#252525"/>
</svg>
