<svg width="12" height="10" viewBox="0 0 12 10" fill="none" xmlns="http://www.w3.org/2000/svg">
<path d="M0 2.125H11.25C11.25 1.44141 10.6836 0.875 10 0.875H1.25C0.546875 0.875 0 1.44141 0 2.125ZM0 2.75V8.375C0 9.07812 0.546875 9.625 1.25 9.625H10C10.6836 9.625 11.25 9.07812 11.25 8.375V2.75H0ZM1.25 8.17969C1.25 7.59375 1.69922 7.125 2.28516 7.125H4.57031C5.15625 7.125 5.625 7.59375 5.625 8.17969C5.625 8.29688 5.52734 8.375 5.41016 8.375H1.44531C1.32812 8.375 1.25 8.29688 1.25 8.17969ZM3.4375 6.5C2.73438 6.5 2.1875 5.95312 2.1875 5.25C2.1875 4.56641 2.73438 4 3.4375 4C4.12109 4 4.6875 4.56641 4.6875 5.25C4.6875 5.95312 4.12109 6.5 3.4375 6.5ZM6.875 4.3125C6.875 4.15625 7.01172 4 7.1875 4H9.6875C9.84375 4 10 4.15625 10 4.3125C10 4.48828 9.84375 4.625 9.6875 4.625H7.1875C7.01172 4.625 6.875 4.48828 6.875 4.3125ZM6.875 5.5625C6.875 5.40625 7.01172 5.25 7.1875 5.25H9.6875C9.84375 5.25 10 5.40625 10 5.5625C10 5.73828 9.84375 5.875 9.6875 5.875H7.1875C7.01172 5.875 6.875 5.73828 6.875 5.5625ZM6.875 6.8125C6.875 6.65625 7.01172 6.5 7.1875 6.5H9.6875C9.84375 6.5 10 6.65625 10 6.8125C10 6.98828 9.84375 7.125 9.6875 7.125H7.1875C7.01172 7.125 6.875 6.98828 6.875 6.8125Z" fill="#5F5F5F"/>
</svg>
