<svg width="11" height="11" viewBox="0 0 11 11" fill="none" xmlns="http://www.w3.org/2000/svg">
<path d="M3.20312 0.738281C3.06641 0.367188 2.65625 0.191406 2.28516 0.289062L0.566406 0.757812C0.234375 0.855469 0 1.14844 0 1.5C0 6.34375 3.90625 10.25 8.75 10.25C9.10156 10.25 9.39453 10.0156 9.49219 9.68359L9.96094 7.96484C10.0586 7.59375 9.88281 7.18359 9.51172 7.04688L7.63672 6.26562C7.32422 6.12891 6.95312 6.20703 6.73828 6.48047L5.9375 7.4375C4.57031 6.79297 3.45703 5.67969 2.8125 4.3125L3.76953 3.51172C4.04297 3.29688 4.12109 2.92578 3.98438 2.61328L3.20312 0.738281Z" fill="#5F5F5F"/>
</svg>
